<svg viewBox="0 0 1100 1182" xmlns="http://www.w3.org/2000/svg" font-family="IBM Plex Mono, monospace">
<rect width="1100" height="1182" fill="#0a0e14"/>
<rect x="0" y="264" width="1100" height="70" fill="#0c1118" opacity="0.85"/>
<ellipse cx="550" cy="299" rx="90" ry="26" fill="none" stroke="#1e2a3a" stroke-width="1.5"/>
<text x="550" y="304" text-anchor="middle" fill="#5a7a94" font-size="11" letter-spacing="3">INTERNET</text>
<line x1="285" y1="244" x2="550" y2="273" stroke="#1e2a3a" stroke-width="1" stroke-dasharray="3,3"/>
<line x1="815" y1="244" x2="550" y2="273" stroke="#1e2a3a" stroke-width="1" stroke-dasharray="3,3"/>
<line x1="550" y1="412" x2="550" y2="325" stroke="#1e2a3a" stroke-width="1" stroke-dasharray="3,3"/>
<line x1="644" y1="669" x2="644" y2="653" stroke="#1e2a3a" stroke-width="1" stroke-dasharray="2,2"/>
<line x1="559" y1="1056" x2="634" y2="1040" stroke="#1e2a3a" stroke-width="1" stroke-dasharray="2,2"/>
<line x1="709" y1="1056" x2="634" y2="1040" stroke="#1e2a3a" stroke-width="1" stroke-dasharray="2,2"/>
<line x1="540" y1="860" x2="926" y2="942" stroke="#2a3a4a" stroke-width="1.5" opacity="0.7"/>
<line x1="540" y1="860" x2="728" y2="958" stroke="#2a3a4a" stroke-width="1.5" opacity="0.7"/>
<line x1="540" y1="860" x2="342" y2="942" stroke="#2a3a4a" stroke-width="1.5" opacity="0.7"/>
<line x1="550" y1="484" x2="644" y2="571" stroke="#2a3a4a" stroke-width="1.5" opacity="0.7"/>
<line x1="540" y1="860" x2="540" y2="958" stroke="#2a3a4a" stroke-width="1.5" opacity="0.7"/>
<line x1="550" y1="484" x2="446" y2="566" stroke="#2a3a4a" stroke-width="1.5" opacity="0.7"/>
<line x1="446" y1="638" x2="540" y2="788" stroke="#2a3a4a" stroke-width="1.5" opacity="0.7"/>
<line x1="540" y1="860" x2="154" y2="942" stroke="#2a3a4a" stroke-width="1.5" opacity="0.7"/>
<line x1="446" y1="638" x2="352" y2="788" stroke="#2a3a4a" stroke-width="1.5" opacity="0.7"/>
<rect x="28" y="28" width="514" height="216" rx="2" fill="none" stroke="#1e2a3a" stroke-width="1" stroke-dasharray="4,4"/>
<text x="38" y="43" fill="#1e2a3a" font-size="8" letter-spacing="2">SaaS SERVICES</text>
<rect x="106" y="62" width="170" height="72" rx="2" fill="#0a0e14" stroke="#0077a8" stroke-width="1"/>
<text x="191" y="88" text-anchor="middle" fill="#e8f4ff" font-size="9" font-weight="600">Webex Cloud</text>
<text x="191" y="105" text-anchor="middle" fill="#5a7a94" font-size="7">Hybrid Services · Calling ·</text>
<text x="191" y="116" text-anchor="middle" fill="#5a7a94" font-size="7">Messaging</text>
<rect x="294" y="62" width="170" height="72" rx="2" fill="#0a0e14" stroke="#9b59b6" stroke-width="1"/>
<text x="379" y="88" text-anchor="middle" fill="#e8f4ff" font-size="9" font-weight="600">Netbox Cloud</text>
<text x="379" y="105" text-anchor="middle" fill="#5a7a94" font-size="7">IPAM / DCIM · Free Tier ·</text>
<text x="379" y="116" text-anchor="middle" fill="#5a7a94" font-size="7">diagram source</text>
<rect x="200" y="158" width="170" height="72" rx="2" fill="#0a0e14" stroke="#0078d4" stroke-width="1"/>
<text x="285" y="184" text-anchor="middle" fill="#e8f4ff" font-size="9" font-weight="600">Microsoft 365</text>
<text x="285" y="201" text-anchor="middle" fill="#5a7a94" font-size="7">Exchange · Teams · Hybrid</text>
<text x="285" y="212" text-anchor="middle" fill="#5a7a94" font-size="7">Calendar</text>
<rect x="558" y="28" width="514" height="216" rx="2" fill="none" stroke="#ff8c42" stroke-width="1" stroke-dasharray="4,4"/>
<text x="568" y="43" fill="#ff8c42" font-size="8" letter-spacing="2">PUBLIC INFRASTRUCTURE</text>
<rect x="636" y="62" width="170" height="72" rx="2" fill="#0a0e14" stroke="#ff8c42" stroke-width="1"/>
<text x="721" y="94" text-anchor="middle" fill="#e8f4ff" font-size="9" font-weight="600">vps-edge01</text>
<text x="721" y="111" text-anchor="middle" fill="#5a7a94" font-size="7">Reverse Proxy</text>
<rect x="824" y="62" width="170" height="72" rx="2" fill="#0a0e14" stroke="#ff8c42" stroke-width="1"/>
<text x="909" y="94" text-anchor="middle" fill="#e8f4ff" font-size="9" font-weight="600">vps-mon01</text>
<text x="909" y="111" text-anchor="middle" fill="#5a7a94" font-size="7">VPS for Monitoring</text>
<rect x="28" y="354" width="1044" height="792" rx="2" fill="none" stroke="#00e5a0" stroke-width="1" stroke-dasharray="4,4"/>
<text x="38" y="369" fill="#00e5a0" font-size="8" letter-spacing="2">HOME LAB</text>
<rect x="465" y="412" width="170" height="72" rx="2" fill="#0a0e14" stroke="#00e5a0" stroke-width="1"/>
<text x="550" y="438" text-anchor="middle" fill="#e8f4ff" font-size="9" font-weight="600">UXG-Fiber</text>
<text x="550" y="455" text-anchor="middle" fill="#5a7a94" font-size="7">Ubiquiti Gateway as Firewall</text>
<text x="550" y="466" text-anchor="middle" fill="#5a7a94" font-size="7">and Router</text>
<rect x="361" y="566" width="170" height="72" rx="2" fill="#0a0e14" stroke="#00e5a0" stroke-width="1"/>
<text x="446" y="592" text-anchor="middle" fill="#e8f4ff" font-size="9" font-weight="600">USW-Lite-8-PoE-Keller</text>
<text x="446" y="609" text-anchor="middle" fill="#5a7a94" font-size="7">Ubiquiti Switch - Backbone</text>
<text x="446" y="620" text-anchor="middle" fill="#5a7a94" font-size="7">Home Network</text>
<rect x="549" y="542" width="190" height="111" rx="3" fill="none" stroke="#00e5a0" stroke-width="1.5" stroke-dasharray="4,3"/>
<text x="644" y="562" text-anchor="middle" fill="#e8f4ff" font-size="8" font-weight="600" letter-spacing="0.5">DS920+</text>
<rect x="559" y="571" width="170" height="72" rx="2" fill="#0a0e14" stroke="#00e5a0" stroke-width="1"/>
<text x="644" y="597" text-anchor="middle" fill="#e8f4ff" font-size="9" font-weight="600">synology-ds920plus</text>
<text x="644" y="614" text-anchor="middle" fill="#5a7a94" font-size="7">NAS + Host for Docker</text>
<text x="644" y="625" text-anchor="middle" fill="#5a7a94" font-size="7">Containers (e.g. n8n)</text>
<rect x="574" y="669" width="140" height="44" rx="2" fill="#0d1219" stroke="#00e5a0" stroke-width="1" stroke-dasharray="2,2"/>
<text x="644" y="689" text-anchor="middle" fill="#e8f4ff" font-size="8" font-weight="600">hau-ctl01</text>
<text x="644" y="704" text-anchor="middle" fill="#5a7a94" font-size="6">2N Access Comander</text>
<rect x="267" y="788" width="170" height="72" rx="2" fill="#0a0e14" stroke="#00e5a0" stroke-width="1"/>
<text x="352" y="814" text-anchor="middle" fill="#e8f4ff" font-size="9" font-weight="600">MGMT-Pi-Home</text>
<text x="352" y="831" text-anchor="middle" fill="#5a7a94" font-size="7">Monitoring Proxy, SSH Jump,</text>
<text x="352" y="842" text-anchor="middle" fill="#5a7a94" font-size="7">...</text>
<rect x="455" y="788" width="170" height="72" rx="2" fill="#0a0e14" stroke="#00e5a0" stroke-width="1"/>
<text x="540" y="814" text-anchor="middle" fill="#e8f4ff" font-size="9" font-weight="600">USW Pro Max 16 PoE</text>
<text x="540" y="831" text-anchor="middle" fill="#5a7a94" font-size="7">Top of the Rack Switch Home</text>
<text x="540" y="842" text-anchor="middle" fill="#5a7a94" font-size="7">Office &amp; Lab</text>
<rect x="69" y="942" width="170" height="72" rx="2" fill="#0a0e14" stroke="#00e5a0" stroke-width="1"/>
<text x="154" y="981" text-anchor="middle" fill="#e8f4ff" font-size="9" font-weight="600">2N IP Audio Kit</text>
<rect x="257" y="942" width="170" height="72" rx="2" fill="#0a0e14" stroke="#00e5a0" stroke-width="1"/>
<text x="342" y="968" text-anchor="middle" fill="#e8f4ff" font-size="9" font-weight="600">ansible-RPi3Bplus</text>
<text x="342" y="985" text-anchor="middle" fill="#5a7a94" font-size="7">RasPi 3B+ as ansible Control</text>
<text x="342" y="996" text-anchor="middle" fill="#5a7a94" font-size="7">Node</text>
<rect x="445" y="918" width="378" height="122" rx="3" fill="none" stroke="#00e5a0" stroke-width="1.5" stroke-dasharray="4,3"/>
<text x="634" y="938" text-anchor="middle" fill="#e8f4ff" font-size="8" font-weight="600" letter-spacing="0.5">hau-hypcl01</text>
<text x="634" y="949" text-anchor="middle" fill="#5a7a94" font-size="6.5">Proxmox VE Cluster</text>
<rect x="455" y="958" width="170" height="72" rx="2" fill="#0a0e14" stroke="#3a4a5a" stroke-width="1"/>
<text x="540" y="990" text-anchor="middle" fill="#e8f4ff" font-size="9" font-weight="600">hau-hyp01</text>
<text x="540" y="1007" text-anchor="middle" fill="#5a7a94" font-size="7">PVE Node 01</text>
<rect x="643" y="958" width="170" height="72" rx="2" fill="#0a0e14" stroke="#00e5a0" stroke-width="1"/>
<text x="728" y="990" text-anchor="middle" fill="#e8f4ff" font-size="9" font-weight="600">hau-hyp02</text>
<text x="728" y="1007" text-anchor="middle" fill="#5a7a94" font-size="7">PVE Node 02</text>
<rect x="489" y="1056" width="140" height="44" rx="2" fill="#0d1219" stroke="#00e5a0" stroke-width="1" stroke-dasharray="2,2"/>
<text x="559" y="1071" text-anchor="middle" fill="#e8f4ff" font-size="8" font-weight="600">hau-lgw01</text>
<text x="559" y="1086" text-anchor="middle" fill="#5a7a94" font-size="6">Webex Calling</text>
<text x="559" y="1096" text-anchor="middle" fill="#5a7a94" font-size="6">Registration Based</text>
<rect x="639" y="1056" width="140" height="44" rx="2" fill="#0d1219" stroke="#3a4a5a" stroke-width="1" stroke-dasharray="2,2"/>
<text x="709" y="1071" text-anchor="middle" fill="#e8f4ff" font-size="8" font-weight="600">hau-sgw01</text>
<text x="709" y="1086" text-anchor="middle" fill="#5a7a94" font-size="6">Webex Calling</text>
<text x="709" y="1096" text-anchor="middle" fill="#5a7a94" font-size="6">Survivability Gateway</text>
<rect x="841" y="942" width="170" height="72" rx="2" fill="#0a0e14" stroke="#00e5a0" stroke-width="1"/>
<text x="926" y="968" text-anchor="middle" fill="#e8f4ff" font-size="9" font-weight="600">hau-sw201</text>
<text x="926" y="985" text-anchor="middle" fill="#5a7a94" font-size="7">Cisco Switch for Webex Calling</text>
<text x="926" y="996" text-anchor="middle" fill="#5a7a94" font-size="7">Endpoints</text>
<line x1="721" y1="134" x2="550" y2="412" stroke="#00d4ff" stroke-width="2.5" stroke-dasharray="6,4" opacity="1"/>
<rect x="593" y="264" width="84" height="16" rx="2" fill="#0a0e14" stroke="#00d4ff" stroke-width="1"/>
<text x="635" y="276" text-anchor="middle" fill="#00d4ff" font-size="7" font-weight="600" letter-spacing="0.5">[WG] vps-edge01</text>
</svg>